<!DOCTYPE svg PUBLIC "-//W3C//DTD SVG 1.1//EN" "http://www.w3.org/Graphics/SVG/1.1/DTD/svg11.dtd">
<!-- Uploaded to: SVG Repo, www.svgrepo.com, Transformed by: SVG Repo Mixer Tools -->
<svg fill="#335968" version="1.1" id="Capa_1" xmlns="http://www.w3.org/2000/svg" xmlns:xlink="http://www.w3.org/1999/xlink" width="800px" height="800px" viewBox="0 0 108.248 108.248" xml:space="preserve" stroke="#335968">
<g id="SVGRepo_bgCarrier" stroke-width="0"/>
<g id="SVGRepo_tracerCarrier" stroke-linecap="round" stroke-linejoin="round"/>
<g id="SVGRepo_iconCarrier"> <g> <path d="M107.651,7.151H61.462c-1.65-0.525-3.408-0.813-5.232-0.813c-1.826,0-3.582,0.288-5.234,0.813H3.368v1.093h45.004 c-5.572,2.86-9.393,8.65-9.393,15.345c0,1.223,0.141,2.412,0.383,3.563H3.368v1.093h36.25c1.754,6.263,6.955,11.083,13.432,12.291 c-5.059,0.992-9.291,3.328-12.004,6.616H3.368v1.093h36.848c-0.605,0.891-1.107,1.842-1.494,2.847l-0.318,0.832h-9.885v5.01 c-0.002,0-0.006,0-0.008,0.002c-1.736,0.586-4.459,2.002-6.75,4.433c-0.08-0.017-0.158-0.037-0.244-0.037 c-0.697,0-1.09,0.374-1.324,0.774h-0.027l-0.033-0.68h-0.672c0.025,0.348,0.035,0.705,0.035,1.141v1.875 c-0.463,0.828-0.857,1.733-1.168,2.712H3.368v1.093h14.654c-0.541,2.307-0.598,4.997,0.109,8.109 c0.254,1.123,0.711,3.356,2.475,4.738c-0.174,0.137-0.313,0.299-0.414,0.473h-0.027l-0.033-0.68H19.46 c0.025,0.348,0.035,0.705,0.035,1.142v3.075h0.75v-2.545c0-0.131,0.016-0.262,0.061-0.375c0.109-0.344,0.406-0.672,0.811-0.737 c0.26,0.155,0.541,0.298,0.85,0.416c0.105,0.194,0.17,0.433,0.17,0.715v2.526h0.748v-2.604c0-0.131,0.025-0.258,0.057-0.36 c0.492,0.098,1.029,0.153,1.631,0.146c0.053,0,0.1,0.001,0.15,0c0.023,0.135,0.045,0.271,0.045,0.433v2.389h0.748v-2.483 c0-0.124-0.014-0.229-0.023-0.337c1.049,0,2.061,0.012,3.027,0v4.869H3.37v1.093h25.15v9.715h9.926v3.015 c0,2.258,0.336,4.306,0.91,6.179H3.368v1.093h104.283v-1.093H77.914c0.573-1.872,0.912-3.921,0.912-6.179v-3.015h12.955v-9.715 h15.87v-1.093h-15.87v-4.873c1.379,0.031,2.813-0.016,4.377,0.004c3.84,0.048,5.643-2.41,6.44-5.928 c0.707-3.113,0.649-5.805,0.108-8.11h4.943v-1.093h-5.248c-1.945-6.123-7.363-9.266-10.184-10.219 c-0.164-0.056-0.307-0.086-0.439-0.107v-4.902H78.867l-0.318-0.832c-0.387-1.007-0.9-1.954-1.51-2.847h30.612v-1.093H76.22 c-3.242-3.93-8.654-6.499-15.053-7.037c5.646-1.685,10.072-6.186,11.666-11.87h34.817v-1.093H73.099 c0.242-1.151,0.383-2.339,0.383-3.563c0-6.694-3.82-12.485-9.395-15.345h43.563V7.151z M20.245,63.241v-0.146 c0-0.131,0.016-0.261,0.061-0.373c0.119-0.375,0.457-0.746,0.92-0.762C20.884,62.362,20.556,62.79,20.245,63.241z M87.742,55.962 v9.916c-2.302,0.322-4.429,1.568-5.736,3.804c-2.133,3.646-1.012,9.035,2.896,11.051c0.972,0.498,1.908,0.836,2.841,1.067v12.121 H32.556V81.889c1.074-0.23,2.152-0.58,3.271-1.156c3.91-2.016,5.033-7.405,2.898-11.051c-1.322-2.256-3.473-3.504-5.799-3.812 c-0.096-0.411-0.217-0.816-0.371-1.21v-8.697H87.742z M0.745,1.342L0.597,0.758l1.236-0.663h0.654v5.664H1.745V0.81H1.729 L0.745,1.342z M4.483,4.321c0,0.828,0.715,1.534,1.9,1.534c1.08,0,1.926-0.662,1.926-1.646c0-0.688-0.436-1.185-1.141-1.464V2.719 C7.865,2.387,8.1,1.874,8.1,1.394C8.1,0.688,7.551,0,6.454,0C5.46,0,4.702,0.61,4.702,1.508c0,0.487,0.27,0.975,0.896,1.272 l0.01,0.026C4.911,3.101,4.483,3.607,4.483,4.321z M5.425,1.455c0-0.488,0.35-0.906,0.986-0.906c0.688,0,0.957,0.47,0.957,0.923 c0,0.514-0.375,0.862-0.861,1.028C5.853,2.326,5.425,2.021,5.425,1.455z M6.288,3.049c0.766,0.218,1.246,0.549,1.246,1.237 c0,0.584-0.443,1.011-1.133,1.011c-0.723,0-1.158-0.505-1.133-1.081C5.269,3.677,5.626,3.241,6.288,3.049z M10.821,5.855 c1.254,0,1.969-1.063,1.969-2.988C12.79,1.063,12.11,0,10.917,0c-1.15,0-1.971,1.046-1.971,2.945 C8.966,4.818,9.714,5.855,10.821,5.855z M10.872,0.592c0.793,0,1.15,0.916,1.15,2.311c0,1.446-0.375,2.361-1.158,2.361 c-0.697,0-1.15-0.836-1.15-2.309C9.714,1.412,10.202,0.592,10.872,0.592z M15.284,3.694c0-1.298,0.889-2.239,2.266-2.239 c0.453,0,0.854,0.113,1.063,0.218l-0.174,0.592c-0.182-0.104-0.471-0.2-0.889-0.2c-0.967,0-1.49,0.715-1.49,1.594 c0,0.976,0.629,1.577,1.465,1.577c0.436,0,0.723-0.113,0.939-0.209l0.133,0.575c-0.201,0.104-0.646,0.244-1.213,0.244 C16.112,5.846,15.284,4.984,15.284,3.694z M19.495,2.684c0-0.436-0.01-0.793-0.035-1.141h0.672l0.033,0.68h0.027 c0.234-0.401,0.627-0.775,1.324-0.775c0.574,0,1.01,0.348,1.193,0.845h0.018c0.131-0.235,0.295-0.418,0.471-0.549 c0.252-0.192,0.531-0.296,0.932-0.296c0.559,0,1.385,0.366,1.385,1.83v2.483h-0.748V3.372c0-0.81-0.297-1.298-0.916-1.298 c-0.436,0-0.775,0.322-0.906,0.697c-0.033,0.105-0.061,0.244-0.061,0.384V5.76h-0.748V3.232c0-0.67-0.297-1.159-0.881-1.159 c-0.479,0-0.828,0.383-0.949,0.767c-0.045,0.113-0.061,0.244-0.061,0.375v2.544h-0.75V2.684z M0.745,21.303l-0.148-0.584 l1.236-0.662h0.654v5.663H1.745v-4.949H1.729L0.745,21.303z M7.429,20.71v-0.018h-2.77v-0.636h3.572v0.505l-2.467,5.158H4.971 L7.429,20.71z M12.79,22.827c0-1.803-0.68-2.867-1.873-2.867c-1.15,0-1.971,1.046-1.971,2.945c0.02,1.874,0.768,2.91,1.875,2.91 C12.075,25.815,12.79,24.753,12.79,22.827z M9.714,22.914c0-1.542,0.488-2.361,1.158-2.361c0.793,0,1.15,0.915,1.15,2.309 c0,1.446-0.375,2.361-1.158,2.361C10.167,25.223,9.714,24.387,9.714,22.914z M16.06,23.62c0,0.976,0.629,1.577,1.465,1.577 c0.436,0,0.723-0.113,0.939-0.209l0.133,0.575c-0.201,0.104-0.646,0.244-1.213,0.244c-1.271,0-2.1-0.863-2.1-2.152 c0-1.298,0.889-2.239,2.266-2.239c0.453,0,0.854,0.113,1.063,0.218l-0.174,0.593c-0.182-0.104-0.471-0.201-0.889-0.201 C16.583,22.025,16.06,22.74,16.06,23.62z M24.767,25.72v-2.388c0-0.81-0.297-1.298-0.916-1.298c-0.436,0-0.775,0.323-0.906,0.697 c-0.033,0.104-0.061,0.244-0.061,0.383v2.605h-0.748v-2.526c0-0.671-0.297-1.159-0.881-1.159c-0.479,0-0.828,0.384-0.949,0.767 c-0.045,0.113-0.061,0.244-0.061,0.375v2.544h-0.75v-3.076c0-0.436-0.01-0.793-0.035-1.141h0.672l0.033,0.68h0.027 c0.234-0.401,0.627-0.775,1.324-0.775c0.574,0,1.01,0.348,1.193,0.845h0.018c0.131-0.235,0.295-0.418,0.471-0.548 c0.252-0.192,0.531-0.296,0.932-0.296c0.559,0,1.385,0.366,1.385,1.83v2.483h-0.748V25.72z M0.745,41.263l-0.148-0.584l1.236-0.662 h0.654v5.663H1.745v-4.949H1.729L0.745,41.263z M7.212,40.592c0.217-0.035,0.418-0.043,0.574-0.035V39.93 c-0.139,0-0.33,0.008-0.557,0.043c-0.715,0.087-1.342,0.375-1.813,0.836c-0.557,0.558-0.959,1.438-0.959,2.553 c0,1.472,0.793,2.413,2.004,2.413c1.176,0,1.883-0.958,1.883-1.995c0-1.106-0.707-1.83-1.709-1.83 c-0.627,0-1.098,0.296-1.367,0.653H5.243C5.374,41.672,6.009,40.792,7.212,40.592z M5.304,43.223 c0.209-0.409,0.635-0.697,1.098-0.697c0.705,0,1.168,0.488,1.168,1.298s-0.445,1.359-1.107,1.359c-0.801,0-1.229-0.688-1.246-1.621 C5.216,43.424,5.251,43.31,5.304,43.223z M12.79,42.788c0-1.803-0.68-2.866-1.873-2.866c-1.15,0-1.971,1.045-1.971,2.945 c0.02,1.873,0.768,2.91,1.875,2.91C12.075,45.776,12.79,44.713,12.79,42.788z M9.714,42.875c0-1.542,0.488-2.361,1.158-2.361 c0.793,0,1.15,0.915,1.15,2.309c0,1.446-0.375,2.361-1.158,2.361C10.167,45.184,9.714,44.347,9.714,42.875z M16.06,43.58 c0,0.976,0.629,1.577,1.465,1.577c0.436,0,0.723-0.113,0.939-0.209l0.133,0.575c-0.201,0.105-0.646,0.244-1.213,0.244 c-1.271,0-2.1-0.863-2.1-2.152c0-1.298,0.889-2.239,2.266-2.239c0.453,0,0.854,0.113,1.063,0.218l-0.174,0.592 c-0.182-0.104-0.471-0.2-0.889-0.2C16.583,41.986,16.06,42.701,16.06,43.58z M24.767,45.68v-2.387c0-0.81-0.297-1.298-0.916-1.298 c-0.436,0-0.775,0.322-0.906,0.697c-0.033,0.104-0.061,0.244-0.061,0.383v2.605h-0.748v-2.526c0-0.671-0.297-1.159-0.881-1.159 c-0.479,0-0.828,0.383-0.949,0.767c-0.045,0.113-0.061,0.244-0.061,0.375v2.544h-0.75v-3.076c0-0.436-0.01-0.792-0.035-1.141h0.672 l0.033,0.68h0.027c0.234-0.401,0.627-0.775,1.324-0.775c0.574,0,1.01,0.349,1.193,0.845h0.018c0.131-0.235,0.295-0.418,0.471-0.549 c0.252-0.192,0.531-0.296,0.932-0.296c0.559,0,1.385,0.366,1.385,1.83v2.483h-0.748V45.68z M0.745,61.225l-0.148-0.584l1.236-0.662 h0.654v5.664H1.745v-4.951H1.729L0.745,61.225z M7.272,63.891c-0.008-0.731-0.496-1.254-1.629-1.254 c-0.322,0-0.576,0.034-0.783,0.061l0.365-2.719h2.709v0.646h-2.16l-0.219,1.454c0.131-0.018,0.254-0.034,0.463-0.034 c0.436,0,0.871,0.097,1.219,0.306c0.445,0.252,0.811,0.74,0.811,1.455c0,1.105-0.879,1.935-2.109,1.935 c-0.617,0-1.141-0.175-1.41-0.349l0.191-0.584c0.236,0.14,0.697,0.312,1.211,0.312C6.653,65.118,7.272,64.646,7.272,63.891z M12.79,62.749c0-1.804-0.68-2.867-1.873-2.867c-1.15,0-1.971,1.046-1.971,2.945c0.02,1.873,0.768,2.91,1.875,2.91 C12.075,65.737,12.79,64.675,12.79,62.749z M9.714,62.836c0-1.542,0.488-2.361,1.158-2.361c0.793,0,1.15,0.916,1.15,2.311 c0,1.445-0.375,2.359-1.158,2.359C10.167,65.145,9.714,64.309,9.714,62.836z M16.06,63.542c0,0.976,0.629,1.576,1.465,1.576 c0.436,0,0.723-0.113,0.939-0.209l0.133,0.575c-0.201,0.104-0.646,0.244-1.213,0.244c-1.271,0-2.1-0.862-2.1-2.151 c0-1.299,0.889-2.24,2.266-2.24c0.453,0,0.854,0.113,1.063,0.22l-0.174,0.592c-0.182-0.104-0.471-0.2-0.889-0.2 C16.583,61.947,16.06,62.661,16.06,63.542z M1.729,80.153l-0.984,0.53L0.597,80.1l1.236-0.662h0.654v5.664H1.745v-4.948H1.729z M6.819,79.438l-2.527,3.617v0.504h2.633v1.543h0.723v-1.543h0.793v-0.602H7.648v-3.52H6.819L6.819,79.438z M6.925,81.068v1.89 H5.068v-0.017l1.387-1.926c0.156-0.262,0.297-0.506,0.471-0.838h0.025C6.933,80.477,6.925,80.771,6.925,81.068z M12.79,82.21 c0-1.805-0.68-2.866-1.873-2.866c-1.15,0-1.971,1.045-1.971,2.944c0.02,1.873,0.768,2.91,1.875,2.91 C12.075,85.198,12.79,84.135,12.79,82.21z M9.714,82.296c0-1.541,0.488-2.36,1.158-2.36c0.793,0,1.15,0.916,1.15,2.31 c0,1.446-0.375,2.36-1.158,2.36C10.167,84.605,9.714,83.768,9.714,82.296z M16.06,83.002c0,0.977,0.629,1.577,1.465,1.577 c0.436,0,0.723-0.113,0.939-0.209l0.133,0.574c-0.201,0.104-0.646,0.243-1.213,0.243c-1.271,0-2.1-0.86-2.1-2.15 c0-1.298,0.889-2.239,2.266-2.239c0.453,0,0.854,0.113,1.063,0.218l-0.174,0.594c-0.182-0.104-0.471-0.201-0.889-0.201 C16.583,81.407,16.06,82.122,16.06,83.002z M2.683,99.059h0.645v5.592H2.596v-4.887H2.58l-0.973,0.524l-0.146-0.576L2.683,99.059z M8.052,103.05c-0.008-0.782-0.713-1.118-1.443-1.118H6.187v-0.567h0.422c0.551,0,1.246-0.283,1.246-0.946 c0-0.447-0.283-0.843-0.98-0.843c-0.447,0-0.877,0.198-1.117,0.37l-0.199-0.551c0.293-0.215,0.861-0.431,1.463-0.431 c1.102,0,1.602,0.654,1.602,1.333c0,0.577-0.344,1.066-1.033,1.316v0.017c0.689,0.14,1.246,0.654,1.246,1.438 c0,0.895-0.695,1.678-2.037,1.678c-0.629,0-1.18-0.199-1.455-0.379l0.207-0.585c0.215,0.138,0.715,0.353,1.238,0.353 C7.761,104.135,8.062,103.516,8.052,103.05z M13.501,101.794c0-1.78-0.672-2.83-1.85-2.83c-1.135,0-1.945,1.031-1.945,2.906 c0.02,1.853,0.758,2.875,1.852,2.875C12.796,104.745,13.501,103.695,13.501,101.794z M10.464,101.88 c0-1.522,0.482-2.331,1.145-2.331c0.783,0,1.135,0.903,1.135,2.28c0,1.428-0.369,2.33-1.143,2.33 C10.911,104.159,10.464,103.333,10.464,101.88z M16.731,102.577c0,0.963,0.619,1.558,1.445,1.558c0.43,0,0.713-0.111,0.928-0.207 l0.131,0.567c-0.199,0.104-0.637,0.241-1.197,0.241c-1.256,0-2.074-0.854-2.074-2.127c0-1.28,0.879-2.209,2.238-2.209 c0.447,0,0.844,0.111,1.049,0.215l-0.172,0.585c-0.182-0.104-0.465-0.197-0.877-0.197 C17.249,101.003,16.731,101.708,16.731,102.577z M25.327,104.648v-2.355c0-0.8-0.293-1.281-0.904-1.281 c-0.43,0-0.764,0.317-0.893,0.688c-0.035,0.104-0.063,0.24-0.063,0.379v2.57h-0.738v-2.493c0-0.662-0.293-1.146-0.869-1.146 c-0.473,0-0.816,0.379-0.938,0.758c-0.043,0.111-0.061,0.24-0.061,0.369v2.512h-0.74v-3.035c0-0.432-0.008-0.782-0.035-1.127h0.664 l0.033,0.671h0.027c0.232-0.396,0.619-0.767,1.307-0.767c0.568,0,0.996,0.345,1.178,0.834h0.02 c0.127-0.231,0.291-0.412,0.463-0.541c0.25-0.188,0.525-0.293,0.922-0.293c0.549,0,1.367,0.361,1.367,1.808v2.45H25.327z M50.72,73.406c1.691-0.131,2.838-0.525,3.508-1.241c0.484-0.549,0.787-1.251,0.717-2.144c-0.115-1.537-1.332-2.264-2.334-2.434 l-0.002-0.031c1.061-0.481,1.654-1.41,1.578-2.408c-0.063-0.813-0.434-1.404-1.002-1.764c-0.686-0.473-1.563-0.639-2.9-0.535 c-0.938,0.071-1.852,0.234-2.428,0.401l0.779,10.19C49.087,73.471,49.798,73.477,50.72,73.406z M53.53,70.115 c0.115,1.507-1.121,2.109-2.506,2.218c-0.475,0.035-0.859,0.049-1.125,0.022l-0.303-3.949l1.105-0.085 C52.163,68.21,53.423,68.702,53.53,70.115z M50.438,63.874c1.354-0.104,2.313,0.304,2.406,1.517c0.076,1-0.697,1.801-2.111,1.909 l-1.215,0.093l-0.254-3.336C49.476,63.993,49.825,63.921,50.438,63.874z M56.194,70.917c0.08,1.075,0.933,2.078,2.438,1.962 c1.061-0.081,1.818-0.665,2.188-1.279l0.048-0.004l0.18,0.93l1.229-0.094c-0.131-0.5-0.209-1.129-0.26-1.773l-0.213-2.783 c-0.113-1.49-0.785-3-3.061-2.826c-0.938,0.072-1.81,0.401-2.394,0.848l0.375,0.867c0.498-0.377,1.203-0.646,1.896-0.699 c1.521-0.116,1.774,0.978,1.821,1.592l0.013,0.152C57.578,68.014,56.056,69.118,56.194,70.917z M60.556,68.743l0.1,1.291 c0.01,0.139-0.008,0.295-0.043,0.437c-0.168,0.646-0.734,1.31-1.703,1.383c-0.693,0.054-1.309-0.317-1.375-1.193 C57.423,69.216,59.078,68.825,60.556,68.743z M66.998,72.239c1.213-0.093,2.071-0.793,2.424-1.653l0.031-0.003l0.159,1.286 l1.214-0.094c-0.084-0.504-0.158-1.256-0.207-1.916l-0.688-8.99l-1.354,0.104l0.34,4.441l-0.028,0.002 c-0.386-0.572-1.195-1.052-2.332-0.966c-1.813,0.139-3.236,1.776-3.029,4.252C63.701,70.96,65.199,72.377,66.998,72.239z M66.897,65.491c1.017-0.078,1.808,0.571,2.072,1.418c0.059,0.166,0.092,0.396,0.104,0.563l0.098,1.291 c0.017,0.215,0.017,0.4-0.016,0.588c-0.168,1.033-0.951,1.696-1.859,1.767c-1.461,0.112-2.293-1.076-2.407-2.582 C64.765,66.891,65.5,65.6,66.897,65.491z M51.7,75.503c-0.938,0.071-1.852,0.234-2.428,0.402l0.779,10.188 c0.451,0.027,1.162,0.035,2.084-0.035c1.691-0.129,2.836-0.525,3.508-1.242c0.483-0.547,0.785-1.25,0.717-2.143 c-0.116-1.537-1.332-2.263-2.334-2.434l-0.002-0.03c1.062-0.481,1.654-1.409,1.578-2.407c-0.063-0.814-0.435-1.404-1.002-1.765 C53.915,75.564,53.038,75.4,51.7,75.503z M54.946,82.768c0.113,1.506-1.123,2.11-2.506,2.217c-0.475,0.035-0.861,0.052-1.127,0.023 l-0.301-3.949l1.105-0.084C53.579,80.862,54.839,81.354,54.946,82.768z M52.149,79.952l-1.215,0.092L50.68,76.71 c0.211-0.063,0.561-0.137,1.174-0.185c1.354-0.104,2.313,0.304,2.404,1.519C54.337,79.042,53.563,79.844,52.149,79.952z M60.974,77.641c-2.061,0.155-3.576,1.739-3.387,4.229c0.182,2.353,1.846,3.709,3.856,3.555c1.8-0.138,3.613-1.481,3.404-4.233 C64.673,78.917,63.11,77.477,60.974,77.641z M61.429,84.405c-1.322,0.102-2.352-1.058-2.477-2.687 c-0.109-1.414,0.471-2.941,2.067-3.063s2.351,1.428,2.446,2.688C63.595,83.018,62.72,84.307,61.429,84.405z M70.751,77.061 l1.428-0.108l-1.623,5.457c-0.771,2.625-1.332,3.981-2.193,4.853c-0.617,0.635-1.26,0.916-1.594,1.004l-0.424-1.111 c0.328-0.135,0.758-0.383,1.131-0.752c0.348-0.32,0.77-0.879,1.023-1.594c0.051-0.144,0.09-0.254,0.082-0.33 c-0.006-0.078-0.045-0.183-0.119-0.348l-3.273-6.645l1.475-0.112l1.965,4.271c0.207,0.479,0.437,1.05,0.593,1.485l0.032-0.003 c0.103-0.456,0.213-1.036,0.355-1.589L70.751,77.061z"/> </g> </g>
</svg>